<svg data-name="Layer 2" viewBox="0 0 35 35" xmlns="http://www.w3.org/2000/svg"><path d="M17.5 23.1a1.25 1.25 0 0 1-1.25-1.25V3.154a1.25 1.25 0 0 1 2.5 0v18.694A1.25 1.25 0 0 1 17.5 23.1Z" fill="#ffffff" class="fill-000000"></path><path d="M9.371 11.163a1.251 1.251 0 0 1-.884-2.134l6.751-6.751a3.2 3.2 0 0 1 4.524 0l6.752 6.751a1.25 1.25 0 0 1-1.768 1.771L18 4.046a.7.7 0 0 0-.99 0L10.254 10.8a1.243 1.243 0 0 1-.883.363ZM31.436 34.466H3.564A3.317 3.317 0 0 1 .25 31.153v-8.738a1.25 1.25 0 0 1 2.5 0v8.738a.815.815 0 0 0 .814.813h27.872a.815.815 0 0 0 .814-.813v-8.738a1.25 1.25 0 0 1 2.5 0v8.738a3.317 3.317 0 0 1-3.314 3.313Z" fill="#ffffff" class="fill-000000"></path></svg>