<svg data-name="Layer 2" viewBox="0 0 35 35" xmlns="http://www.w3.org/2000/svg"><path d="M17.5 22.131a1.249 1.249 0 0 1-1.25-1.25V2.187a1.25 1.25 0 0 1 2.5 0v18.694a1.25 1.25 0 0 1-1.25 1.25Z" fill="#ffffff" class="fill-000000"></path><path d="M17.5 22.693a3.189 3.189 0 0 1-2.262-.936l-6.751-6.751a1.249 1.249 0 0 1 1.767-1.767l6.751 6.751a.7.7 0 0 0 .99 0l6.751-6.751a1.25 1.25 0 0 1 1.768 1.767l-6.752 6.751a3.191 3.191 0 0 1-2.262.936Z" fill="#ffffff" class="fill-000000"></path><path d="M31.436 34.063H3.564A3.318 3.318 0 0 1 .25 30.749v-8.738a1.25 1.25 0 0 1 2.5 0v8.738a.815.815 0 0 0 .814.814h27.872a.815.815 0 0 0 .814-.814v-8.738a1.25 1.25 0 1 1 2.5 0v8.738a3.318 3.318 0 0 1-3.314 3.314Z" fill="#ffffff" class="fill-000000"></path></svg>