<?xml version="1.0" standalone="no"?><!DOCTYPE svg PUBLIC "-//W3C//DTD SVG 1.1//EN" "http://www.w3.org/Graphics/SVG/1.1/DTD/svg11.dtd"><svg t="1654430111508" class="icon" viewBox="0 0 1024 1024" version="1.1" xmlns="http://www.w3.org/2000/svg" p-id="33563" xmlns:xlink="http://www.w3.org/1999/xlink" width="200" height="200"><defs><style type="text/css"></style></defs><path d="M192 256a213.333333 213.333333 0 0 1 213.333333-213.333333H810.666667a213.333333 213.333333 0 0 1 213.333333 213.333333v64a42.666667 42.666667 0 0 1-42.666667 42.666667H469.333333a42.666667 42.666667 0 0 1-42.666666-42.666667c0-10.581333-0.256-24.96-5.290667-38.357333-4.309333-11.52-11.861333-21.930667-29.525333-27.818667a42.666667 42.666667 0 1 1 26.965333-80.981333A128.597333 128.597333 0 0 1 501.333333 251.733333c3.285333 8.789333 5.546667 17.493333 7.168 25.642667H938.666667V256a128 128 0 0 0-128-128H405.333333a128 128 0 0 0-128 128v565.333333a42.666667 42.666667 0 1 1-85.333333 0V256z" fill="#000000" p-id="33564"></path><path d="M874.666667 316.458667a42.666667 42.666667 0 0 1 42.666666 42.666666V576a42.666667 42.666667 0 1 1-85.333333 0V359.125333a42.666667 42.666667 0 0 1 42.666667-42.666666zM0 682.666667a42.666667 42.666667 0 0 1 42.666667-42.666667h78.208a42.666667 42.666667 0 1 1 0 85.333333H85.333333v85.333334a128 128 0 0 0 128 128h341.333334a42.666667 42.666667 0 1 1 0 85.333333H213.333333a213.333333 213.333333 0 0 1-213.333333-213.333333v-128zM341.333333 512a42.666667 42.666667 0 0 1 42.666667-42.666667h341.333333a42.666667 42.666667 0 1 1 0 85.333334H384a42.666667 42.666667 0 0 1-42.666667-42.666667zM341.333333 682.666667a42.666667 42.666667 0 0 1 42.666667-42.666667h156.458667a42.666667 42.666667 0 0 1 0 85.333333H384a42.666667 42.666667 0 0 1-42.666667-42.666666zM810.666667 682.666667a42.666667 42.666667 0 0 1 42.666666 42.666666v85.333334h85.333334a42.666667 42.666667 0 0 1 0 85.333333h-85.333334v85.333333a42.666667 42.666667 0 0 1-85.333333 0v-85.333333h-85.333333a42.666667 42.666667 0 0 1 0-85.333333h85.333333v-85.333334a42.666667 42.666667 0 0 1 42.666667-42.666666z" fill="#000000" p-id="33565"></path></svg>