<?xml version="1.0" standalone="no"?><!DOCTYPE svg PUBLIC "-//W3C//DTD SVG 1.1//EN" "http://www.w3.org/Graphics/SVG/1.1/DTD/svg11.dtd"><svg t="1654404783486" class="icon" viewBox="0 0 1228 1024" version="1.1" xmlns="http://www.w3.org/2000/svg" p-id="20934" data-spm-anchor-id="a313x.7781069.0.i6" xmlns:xlink="http://www.w3.org/1999/xlink" width="239.84375" height="200"><defs><style type="text/css"></style></defs><path d="M86.534144 157.696V88.576h388.096l21.504 69.12z m1056.256 0H586.758144l-29.696-96.256A86.528 86.528 0 0 0 474.630144 0H86.534144A87.552 87.552 0 0 0 0.006144 88.576v846.848A87.552 87.552 0 0 0 86.534144 1024h563.2a44.544 44.544 0 0 0 0-88.576h-563.2V246.272h1055.744v182.272a43.008 43.008 0 1 0 86.528 0V246.272a87.552 87.552 0 0 0-86.528-88.576z m43.008 551.424H998.406144V517.12a43.008 43.008 0 1 0-86.528 0v192h-177.664a44.544 44.544 0 0 0 0 88.576h177.664v182.272a43.008 43.008 0 1 0 86.528 0v-182.272h187.392a44.544 44.544 0 0 0 0-88.576z" fill="#000000" p-id="20935"></path></svg>