<?xml version="1.0" standalone="no"?><!DOCTYPE svg PUBLIC "-//W3C//DTD SVG 1.1//EN" "http://www.w3.org/Graphics/SVG/1.1/DTD/svg11.dtd"><svg t="1654434618568" class="icon" viewBox="0 0 1024 1024" version="1.1" xmlns="http://www.w3.org/2000/svg" p-id="34119" xmlns:xlink="http://www.w3.org/1999/xlink" width="200" height="200"><defs><style type="text/css"></style></defs><path d="M561.024 652.032H136.96V371.904h424a8 8 0 0 0 8-8v-56a8 8 0 0 0-8-8h-464a32 32 0 0 0-32 32v360a32 32 0 0 0 32 32h464a8 8 0 0 0 8-7.936v-56.064a8 8 0 0 0-8-7.936z m140.992-344.064v56c0 4.48 3.584 8 8 8h176v280h-176a8 8 0 0 0-8 8.064v55.936c0 4.48 3.584 8.064 8 8.064h216a32 32 0 0 0 32-32V331.904a32 32 0 0 0-32-32h-216a8 8 0 0 0-8 8zM668.032 192h74.944a8 8 0 0 0 8-8v-48A8 8 0 0 0 743.04 128H529.024a8 8 0 0 0-8 8v48c0 4.416 3.584 8 8 8h74.944v638.976H529.088a8 8 0 0 0-8 8v48c0 4.48 3.584 8 8 8h213.952a8 8 0 0 0 8-8v-48a8 8 0 0 0-8-8h-74.944V192zM194.944 480h275.968v64H195.008v-64z" p-id="34120" fill="#000000"></path></svg>