<?xml version="1.0" ?><!DOCTYPE svg  PUBLIC '-//W3C//DTD SVG 1.1//EN'  'http://www.w3.org/Graphics/SVG/1.1/DTD/svg11.dtd'><svg enable-background="new 0 0 24 24" height="24px" id="Layer_1" version="1.1" viewBox="0 0 24 24" width="24px" xml:space="preserve" xmlns="http://www.w3.org/2000/svg" xmlns:xlink="http://www.w3.org/1999/xlink"><path d="M15.9,2.9v8l-1.8-1.8C14,9,13.9,9,13.8,9s-0.3,0-0.4,0.1l-1.8,1.8v-8H15.9z M3.4,22.6c-0.8-0.5-1.3-1.3-1.3-2.3V3.6  c0-0.9,0.5-1.8,1.3-2.3C3.8,1.1,4.3,1,4.7,1s0.9,0.1,1.3,0.3l1,0.6H5.7c-0.3,0-0.5,0.2-0.5,0.5v20.5C4.5,23.1,4,23,3.4,22.6z   M6.2,22.5V2.9h2.6h1.8v9.2c0,0.2,0.1,0.4,0.3,0.5c0.2,0.1,0.4,0,0.5-0.1l2.3-2.3l2.3,2.3c0.1,0.1,0.2,0.1,0.4,0.1  c0.1,0,0.1,0,0.2,0c0.2-0.1,0.3-0.3,0.3-0.5V2.9h2.5v5.9v6.1L6.2,22.5z M20.6,14.3l-0.1,0.1V9.6l0.1,0.1c0.8,0.5,1.3,1.3,1.3,2.3  C21.9,12.9,21.4,13.8,20.6,14.3z"/></svg>