<?xml version="1.0" ?><!DOCTYPE svg  PUBLIC '-//W3C//DTD SVG 1.1//EN'  'http://www.w3.org/Graphics/SVG/1.1/DTD/svg11.dtd'><svg enable-background="new 0 0 24 24" height="24px" id="Layer_1" version="1.1" viewBox="0 0 24 24" width="24px" xml:space="preserve" xmlns="http://www.w3.org/2000/svg" xmlns:xlink="http://www.w3.org/1999/xlink"><g><g><g><path d="M5.1,23.5c-0.6,0-1.2-0.2-1.7-0.5c-1.1-0.6-1.7-1.8-1.7-3V4c0-1.2,0.7-2.4,1.7-3c1.1-0.6,2.4-0.6,3.5,0l2.5,1.4     c0.2,0.1,0.3,0.3,0.2,0.6C9.4,3.2,9.2,3.3,9,3.3H6.5v19.5c0,0.2-0.1,0.4-0.3,0.5C5.8,23.4,5.4,23.5,5.1,23.5z M5.1,1.5     c-0.4,0-0.9,0.1-1.2,0.3C3,2.3,2.6,3.1,2.6,4v16c0,0.9,0.5,1.7,1.2,2.2c0.5,0.3,1,0.4,1.7,0.3V2.8c0-0.3,0.2-0.5,0.5-0.5h1.1     L6.3,1.8C5.9,1.6,5.5,1.5,5.1,1.5z"/></g><g><path d="M19.6,15.6c-0.1,0-0.2,0-0.3-0.1c-0.2-0.1-0.2-0.3-0.2-0.4V8.9c0-0.2,0.1-0.3,0.2-0.4c0.2-0.1,0.3-0.1,0.5,0L20.7,9     c1.1,0.6,1.7,1.8,1.7,3c0,1.2-0.7,2.4-1.7,3l-0.8,0.5C19.8,15.6,19.7,15.6,19.6,15.6z M20.1,9.8v4.4l0.1-0.1     c0.8-0.4,1.2-1.3,1.2-2.2C21.4,11.1,21,10.3,20.1,9.8L20.1,9.8z"/></g><g><path d="M6,23.3c-0.1,0-0.2,0-0.3-0.1c-0.1-0.1-0.2-0.2-0.2-0.4v-20c0-0.3,0.2-0.5,0.5-0.5h13.6c0.3,0,0.5,0.2,0.5,0.5v12.3     c0,0.2-0.1,0.3-0.2,0.4L6.8,23c-0.2,0.1-0.4,0.2-0.6,0.2C6.2,23.3,6.1,23.3,6,23.3z M6.5,3.3V22l12.6-7.3V3.3H6.5z"/></g></g><g><path d="M16.2,12.6c-0.1,0-0.3-0.1-0.4-0.1l-2.2-2.2l-2.2,2.2c-0.1,0.1-0.4,0.2-0.5,0.1c-0.2-0.1-0.3-0.3-0.3-0.5V2.8    c0-0.3,0.2-0.5,0.5-0.5h5c0.3,0,0.5,0.2,0.5,0.5v9.3c0,0.2-0.1,0.4-0.3,0.5C16.4,12.6,16.3,12.6,16.2,12.6z M13.7,9.1    c0.1,0,0.3,0,0.4,0.1l1.7,1.7V3.3h-4v7.6l1.7-1.7C13.5,9.1,13.6,9.1,13.7,9.1z"/></g></g></svg>